<svg id="Group_36" data-name="Group 36" xmlns="http://www.w3.org/2000/svg" width="85.676" height="90.61" viewBox="0 0 85.676 90.61">
  <path id="Path_19" data-name="Path 19" d="M298.341,317.8a1.589,1.589,0,0,0-2.247,0l-10.459,10.459-3.058-3.058a1.589,1.589,0,1,0-2.247,2.247l5.3,5.3,12.706-12.706A1.589,1.589,0,0,0,298.341,317.8Z" transform="translate(-272.757 -306.756)" fill="#1D1D1B"/>
  <path id="Path_20" data-name="Path 20" d="M697.332,479.114a22.077,22.077,0,1,0-6.466-15.611A21.933,21.933,0,0,0,697.332,479.114ZM712.944,444.6a18.9,18.9,0,1,1-18.9,18.9A18.921,18.921,0,0,1,712.944,444.6Z" transform="translate(-662.015 -424.281)" fill="#1D1D1B"/>
  <path id="Path_21" data-name="Path 21" d="M951.9,576.207a8.112,8.112,0,1,0-8.112-8.112A8.121,8.121,0,0,0,951.9,576.207Zm0-13.046a4.934,4.934,0,1,1-4.934,4.934A4.94,4.94,0,0,1,951.9,563.161Z" transform="translate(-901.558 -536.567)" fill="#1D1D1B"/>
  <path id="Path_22" data-name="Path 22" d="M885.207,922.242a16.34,16.34,0,0,0,11.613-4.835,12.8,12.8,0,0,0-12.2-8.925h0a12.8,12.8,0,0,0-11.87,8.011A16.36,16.36,0,0,0,885.207,922.242Z" transform="translate(-834.279 -866.63)" fill="#1D1D1B"/>
  <path id="Path_23" data-name="Path 23" d="M736.334,1337.722H697.2a1.589,1.589,0,1,0,0,3.178h39.137a1.589,1.589,0,1,0,0-3.178Z" transform="translate(-666.506 -1273.162)" fill="#1D1D1B"/>
  <path id="Path_24" data-name="Path 24" d="M736.334,1473.669H697.2a1.589,1.589,0,1,0,0,3.178h39.137a1.589,1.589,0,1,0,0-3.178Z" transform="translate(-666.506 -1401.917)" fill="#1D1D1B"/>
  <path id="Path_25" data-name="Path 25" d="M736.334,1609.615H697.2a1.589,1.589,0,1,0,0,3.178h39.137a1.589,1.589,0,1,0,0-3.178Z" transform="translate(-666.506 -1530.671)" fill="#1D1D1B"/>
  <path id="Path_26" data-name="Path 26" d="M164.684,117.576a16.558,16.558,0,1,0-4.173,32.834v57.566h70.665v-90.4Zm-16.007,16.349a13.4,13.4,0,0,1,13.38-13.38h.042v.044c.151-.01.305-.015.461-.015a6.824,6.824,0,0,1,1.575.179h.286a13.381,13.381,0,1,1-15.744,13.171ZM228,204.8H163.689V150.4a16.552,16.552,0,0,0,8.391-29.649H228Z" transform="translate(-145.5 -117.367)" fill="#1D1D1B"/>
</svg>
