<svg xmlns="http://www.w3.org/2000/svg" width="26.7" height="17.8" viewBox="0 0 26.7 17.8">
  <g id="Group_531" data-name="Group 531" transform="translate(26.7) rotate(90)">
    <path id="Path_1157" data-name="Path 1157" d="M8.9,10.383a1.347,1.347,0,0,1-1.038-.445L.445,2.522a1.434,1.434,0,0,1,0-2.077,1.434,1.434,0,0,1,2.077,0L9.938,7.862a1.434,1.434,0,0,1,0,2.077,1.347,1.347,0,0,1-1.038.445Z" transform="translate(7.417 0)" fill="#1d1d1b"/>
    <path id="Path_1158" data-name="Path 1158" d="M1.483,10.383A1.347,1.347,0,0,1,.445,9.938a1.434,1.434,0,0,1,0-2.077L7.862.445a1.434,1.434,0,0,1,2.077,0,1.434,1.434,0,0,1,0,2.077L2.522,9.938a1.347,1.347,0,0,1-1.038.445Z" transform="translate(0 0)" fill="#1d1d1b"/>
    <path id="Path_1159" data-name="Path 1159" d="M1.483,26.7A1.4,1.4,0,0,1,0,25.217V1.483A1.4,1.4,0,0,1,1.483,0,1.4,1.4,0,0,1,2.967,1.483V25.217A1.4,1.4,0,0,1,1.483,26.7Z" transform="translate(7.417 0)" fill="#1d1d1b"/>
  </g>
</svg>
