<svg id="g1378" xmlns="http://www.w3.org/2000/svg" width="53.154" height="44.136" viewBox="0 0 53.154 44.136">
  <path id="path1380" d="M0,39.16H9.676V29.311h9.613V19.4h9.765V9.667h9.7V0h14.4V4.932H43.581v9.7h-9.71v9.84h-9.69v9.789H14.45v9.872H0Z" fill="#1d1d1b"/>
  <path id="path1382" d="M262.647,237.665H254.09a1.813,1.813,0,0,0,0,3.626h4.386l-8.342,8.342a1.877,1.877,0,1,0,2.731,2.561l8.217-8.24v4.341a1.825,1.825,0,0,0,3.65,0v-8.5A2,2,0,0,0,262.647,237.665Z" transform="translate(-219.346 -208.937)" fill="#1d1d1b"/>
</svg>
