<svg xmlns="http://www.w3.org/2000/svg" width="45.241" height="31.669" viewBox="0 0 45.241 31.669">
  <g id="Group_603" data-name="Group 603" transform="translate(-2 -5)">
    <path id="Path_1397" data-name="Path 1397" d="M6.524,5A4.524,4.524,0,0,0,2,9.524V32.145a4.524,4.524,0,0,0,4.524,4.524H42.717a4.524,4.524,0,0,0,4.524-4.524V9.524A4.524,4.524,0,0,0,42.717,5ZM8.786,9.524a2.262,2.262,0,0,0-2.262,2.262v18.1a2.262,2.262,0,0,0,2.262,2.262H40.455a2.262,2.262,0,0,0,2.262-2.262v-18.1a2.262,2.262,0,0,0-2.262-2.262Z" transform="translate(0)" fill="#1d1d1b" fill-rule="evenodd"/>
    <path id="Path_1398" data-name="Path 1398" d="M2,9H47.241v4.524H2Zm9.048,11.31H24.621v2.262H11.048Z" transform="translate(0 5.048)" fill="#1d1d1b"/>
  </g>
</svg>
