<svg xmlns="http://www.w3.org/2000/svg" width="51.5" height="51.5" viewBox="0 0 51.5 51.5">
  <g id="Group_610" data-name="Group 610" transform="translate(-0.25 -0.25)">
    <g id="Group_604" data-name="Group 604">
      <path id="Path_1400" data-name="Path 1400" d="M12.847,21.462V32.807h-1.66V50H3.67V32.807H2V21.462a5.424,5.424,0,1,1,10.847,0Z" fill="none" stroke="#1d1d1b" stroke-linecap="round" stroke-linejoin="round" stroke-miterlimit="10" stroke-width="3.5"/>
      <circle id="Ellipse_95" data-name="Ellipse 95" cx="4.321" cy="4.321" r="4.321" transform="translate(3.103 2)" fill="none" stroke="#1d1d1b" stroke-linecap="round" stroke-linejoin="round" stroke-miterlimit="10" stroke-width="3.5"/>
    </g>
    <g id="Group_606" data-name="Group 606">
      <path id="Path_1401" data-name="Path 1401" d="M21.29,2H50V24.62H21.29Z" fill="none" stroke="#1d1d1b" stroke-linecap="round" stroke-linejoin="round" stroke-miterlimit="10" stroke-width="3.5"/>
      <path id="Path_1402" data-name="Path 1402" d="M45.18,36.7l-6.81-12.08" fill="none" stroke="#1d1d1b" stroke-linecap="round" stroke-linejoin="round" stroke-miterlimit="10" stroke-width="3.5"/>
      <path id="Path_1403" data-name="Path 1403" d="M32.91,24.616,26.11,36.7" fill="none" stroke="#1d1d1b" stroke-linecap="round" stroke-linejoin="round" stroke-miterlimit="10" stroke-width="3.5"/>
      <g id="Group_605" data-name="Group 605">
        <path id="Path_1404" data-name="Path 1404" d="M37.36,7.5l5.526,1.257-1.257,5.526" fill="none" stroke="#1d1d1b" stroke-linecap="round" stroke-linejoin="round" stroke-miterlimit="10" stroke-width="3.5"/>
        <path id="Path_1405" data-name="Path 1405" d="M42.886,8.753,28.405,17.866" fill="none" stroke="#1d1d1b" stroke-linecap="round" stroke-linejoin="round" stroke-miterlimit="10" stroke-width="3.5"/>
      </g>
    </g>
    <g id="Group_607" data-name="Group 607">
      <path id="Path_1406" data-name="Path 1406" d="M12.847,21.462V32.807h-1.66V50H3.67V32.807H2V21.462a5.424,5.424,0,1,1,10.847,0Z" fill="none" stroke="#1d1d1b" stroke-linecap="round" stroke-linejoin="round" stroke-miterlimit="10" stroke-width="3.5"/>
      <circle id="Ellipse_96" data-name="Ellipse 96" cx="4.321" cy="4.321" r="4.321" transform="translate(3.103 2)" fill="none" stroke="#1d1d1b" stroke-linecap="round" stroke-linejoin="round" stroke-miterlimit="10" stroke-width="3.5"/>
    </g>
    <g id="Group_609" data-name="Group 609">
      <path id="Path_1407" data-name="Path 1407" d="M21.29,2H50V24.62H21.29Z" fill="none" stroke="#1d1d1b" stroke-linecap="round" stroke-linejoin="round" stroke-miterlimit="10" stroke-width="3.5"/>
      <path id="Path_1408" data-name="Path 1408" d="M45.18,36.7l-6.81-12.08" fill="none" stroke="#1d1d1b" stroke-linecap="round" stroke-linejoin="round" stroke-miterlimit="10" stroke-width="3.5"/>
      <path id="Path_1409" data-name="Path 1409" d="M32.91,24.616,26.11,36.7" fill="none" stroke="#1d1d1b" stroke-linecap="round" stroke-linejoin="round" stroke-miterlimit="10" stroke-width="3.5"/>
      <g id="Group_608" data-name="Group 608">
        <path id="Path_1410" data-name="Path 1410" d="M37.36,7.5l5.526,1.257-1.257,5.526" fill="none" stroke="#1d1d1b" stroke-linecap="round" stroke-linejoin="round" stroke-miterlimit="10" stroke-width="3.5"/>
        <path id="Path_1411" data-name="Path 1411" d="M42.886,8.753,28.405,17.866" fill="none" stroke="#1d1d1b" stroke-linecap="round" stroke-linejoin="round" stroke-miterlimit="10" stroke-width="3.5"/>
      </g>
    </g>
  </g>
</svg>
