<svg xmlns="http://www.w3.org/2000/svg" width="50.415" height="60" viewBox="0 0 50.415 60">
  <g id="Group_611" data-name="Group 611" transform="translate(-10.95 -0.55)">
    <path id="Path_1412" data-name="Path 1412" d="M94.427,54.093c-1.558-.458-3.07-.962-4.582-1.466a.742.742,0,0,0-.916.275c-.871,1.054-1.787,2.062-2.749,3.161-.962-1.1-1.878-2.108-2.749-3.161a.784.784,0,0,0-.916-.275c-1.512.5-3.07.962-4.582,1.466a.9.9,0,0,0-.733.962v.183L77.979,68.8v.229c.137,1.878.229,2.062,2.016,2.612l.871,12.966a2.1,2.1,0,0,0,2.062,1.97h6.414a2.065,2.065,0,0,0,2.062-1.97l.871-12.966c1.787-.55,1.924-.733,2.016-2.612V68.8l.779-13.562v-.183A.769.769,0,0,0,94.427,54.093Z" transform="translate(-35.49 -27.777)" fill="none" stroke="#1d1d1b" stroke-width="3.5"/>
    <circle id="Ellipse_97" data-name="Ellipse 97" cx="4.902" cy="4.902" r="4.902" transform="translate(45.788 13.441)" fill="none" stroke="#1d1d1b" stroke-width="3.5"/>
    <path id="Path_1413" data-name="Path 1413" d="M16.511,32.959V11.1H52.065V9.547A2,2,0,0,0,54.08,7.531V7.165a2,2,0,0,0-2.016-2.016H34.471V2.858a1.558,1.558,0,0,0-3.116,0V5.1H13.716A2,2,0,0,0,11.7,7.119v.367A2,2,0,0,0,13.716,9.5V33.967a1.691,1.691,0,0,0,1.7,1.7H39.877l-.137-2.795H16.511Z" fill="#1d1d1b" stroke="#1d1d1b" stroke-width="1.5"/>
  </g>
</svg>
