<svg xmlns="http://www.w3.org/2000/svg" width="46.65" height="43.318" viewBox="0 0 46.65 43.318">
  <path id="path7" d="M5.484,1.5A4.491,4.491,0,0,0,1,5.984V17.015a4.488,4.488,0,0,0,4.484,4.478H11v3.332H7.664v3.332h10V24.825H14.329V21.493h5.512a4.491,4.491,0,0,0,4.484-4.484V5.984A4.491,4.491,0,0,0,19.841,1.5Zm0,3.332H19.848a1.15,1.15,0,0,1,1.145,1.152V17.015a1.15,1.15,0,0,1-1.152,1.145H5.484a1.154,1.154,0,0,1-1.152-1.152V5.984A1.154,1.154,0,0,1,5.484,4.832Zm22.173,0V8.164H33.17a1.154,1.154,0,0,1,1.152,1.152v5.512h3.332V9.316A4.491,4.491,0,0,0,33.17,4.832Zm1.152,13.329a4.491,4.491,0,0,0-4.484,4.484V33.676a4.488,4.488,0,0,0,4.484,4.477h5.512v3.332H30.989v3.332h10V41.486H37.654V38.154h5.512A4.491,4.491,0,0,0,47.65,33.67V22.645a4.491,4.491,0,0,0-4.484-4.484Zm0,3.332H43.173a1.15,1.15,0,0,1,1.145,1.152V33.67a1.154,1.154,0,0,1-1.152,1.152H28.809a1.154,1.154,0,0,1-1.152-1.152V22.645A1.154,1.154,0,0,1,28.809,21.493ZM11,31.489v8.845a4.491,4.491,0,0,0,4.484,4.484H27.657V41.486H15.481a1.154,1.154,0,0,1-1.152-1.152V31.489Z" transform="translate(-1 -1.5)" fill="#1d1d1b"/>
</svg>
