<svg xmlns="http://www.w3.org/2000/svg" width="45.333" height="52.722" viewBox="0 0 45.333 52.722">
  <path id="Path_1418" data-name="Path 1418" d="M21.083,31.505V43.422a13.3,13.3,0,0,0,26.6,0V33.676a8.128,8.128,0,1,0-2.956,0v9.747a10.344,10.344,0,0,1-20.689,0V31.505A12.574,12.574,0,0,0,35.122,19.039V5H26.256V7.956h5.911V19.039a9.606,9.606,0,0,1-19.211,0V7.956h5.911V5H10V19.039A12.574,12.574,0,0,0,21.083,31.505Zm19.95-5.816a5.172,5.172,0,1,1,5.172,5.172A5.178,5.178,0,0,1,41.033,25.689Z" transform="translate(-9.5 -4.5)" fill="#1d1d1b" stroke="#1d1d1b" stroke-width="1"/>
</svg>
