<svg xmlns="http://www.w3.org/2000/svg" width="45.241" height="45.241" viewBox="0 0 45.241 45.241">
  <path id="Path_1399" data-name="Path 1399" d="M24.621,11.048H17.834a2.262,2.262,0,0,0-2.262,2.262V35.931a2.262,2.262,0,0,0,4.524,0V29.145h4.524a9.048,9.048,0,0,0,0-18.1Zm0,13.572H20.1V15.572h4.524a4.524,4.524,0,1,1,0,9.048ZM40.455,2H8.786A6.786,6.786,0,0,0,2,8.786V40.455a6.786,6.786,0,0,0,6.786,6.786H40.455a6.786,6.786,0,0,0,6.786-6.786V8.786A6.786,6.786,0,0,0,40.455,2Zm2.262,38.455a2.262,2.262,0,0,1-2.262,2.262H8.786a2.262,2.262,0,0,1-2.262-2.262V8.786A2.262,2.262,0,0,1,8.786,6.524H40.455a2.262,2.262,0,0,1,2.262,2.262Z" transform="translate(-2 -2)" fill="#1d1d1b"/>
</svg>
