<svg xmlns="http://www.w3.org/2000/svg" width="17.121" height="17.018" viewBox="0 0 17.121 17.018">
  <path id="Path_14" data-name="Path 14" d="M12.048,20.792c.031.025.05.059.082.082a.877.877,0,0,0,.149.059,1.1,1.1,0,0,0,.179.072,1.029,1.029,0,0,0,.182.028,1.049,1.049,0,0,0,.261,0c.036-.006.07-.016.106-.025a1.085,1.085,0,0,0,.3-.128c.017-.011.031-.023.048-.034a.984.984,0,0,0,.187-.135,1.033,1.033,0,0,0,.087-.143s0,0,0,0L22.907,5.706a1.089,1.089,0,0,0-1.823-1.191l-8.56,13.719L7.79,13.629a1.088,1.088,0,1,0-1.477,1.6l5.7,5.541C12.018,20.778,12.034,20.781,12.048,20.792Z" transform="translate(-5.963 -4.022)" fill="#1d1d1b"/>
</svg>
