<svg xmlns="http://www.w3.org/2000/svg" width="206.4" height="74.068" viewBox="0 0 206.4 74.068">
  <g id="Group_559" data-name="Group 559" transform="translate(-611.741 -249.535)">
    <g id="Group_556" data-name="Group 556" transform="translate(663.278 268.935)">
      <path id="Path_1178" data-name="Path 1178" d="M730.554,324.248q-6.955,0-10.6-3.868t-3.642-10.988a16.9,16.9,0,0,1,1.111-6.317,13.614,13.614,0,0,1,3.045-4.691,12.728,12.728,0,0,1,4.609-2.9,16.626,16.626,0,0,1,5.8-.988,18.64,18.64,0,0,1,3.292.268,21.547,21.547,0,0,1,2.592.617,12.781,12.781,0,0,1,1.852.721q.741.37,1.07.576l-1.852,5.185a15.563,15.563,0,0,0-3.065-1.194,14.636,14.636,0,0,0-3.972-.494,8.769,8.769,0,0,0-2.9.494,6.562,6.562,0,0,0-2.51,1.584,7.879,7.879,0,0,0-1.749,2.819,11.817,11.817,0,0,0-.659,4.2,15.007,15.007,0,0,0,.432,3.683,7.81,7.81,0,0,0,1.4,2.942,6.705,6.705,0,0,0,2.531,1.955,9,9,0,0,0,3.786.72,17.231,17.231,0,0,0,2.51-.165,18.609,18.609,0,0,0,1.976-.391,10.364,10.364,0,0,0,1.522-.515q.658-.288,1.194-.535l1.769,5.144a15.018,15.018,0,0,1-3.827,1.481A22.326,22.326,0,0,1,730.554,324.248Z" transform="translate(-716.315 -291.738)" fill="#fff"/>
      <path id="Path_1179" data-name="Path 1179" d="M810.974,310.009a34.337,34.337,0,0,1,4.033-.844,33.186,33.186,0,0,1,5.185-.391,12.643,12.643,0,0,1,4.588.72,6.9,6.9,0,0,1,2.9,2.037,7.947,7.947,0,0,1,1.522,3.128,16.646,16.646,0,0,1,.453,4.033v12.222h-6.132V319.432a8.276,8.276,0,0,0-.782-4.2A3.191,3.191,0,0,0,819.822,314q-.658,0-1.4.062t-1.317.144v16.708h-6.132Z" transform="translate(-764.323 -298.98)" fill="#fff"/>
      <path id="Path_1180" data-name="Path 1180" d="M863.935,288.9a11.874,11.874,0,0,1,2.86.288,13.8,13.8,0,0,1,1.914.617l-1.07,4.814a5.868,5.868,0,0,0-1.461-.411,10.671,10.671,0,0,0-1.625-.124,4.988,4.988,0,0,0-1.872.309,2.888,2.888,0,0,0-1.194.844,3.256,3.256,0,0,0-.618,1.276,6.609,6.609,0,0,0-.185,1.6v1.07h7.572v5.1h-7.572v16.543h-6.132v-22.8a9.232,9.232,0,0,1,2.366-6.667Q859.284,288.9,863.935,288.9Z" transform="translate(-786.425 -288.9)" fill="#fff"/>
      <path id="Path_1181" data-name="Path 1181" d="M893.879,293.357a3.363,3.363,0,0,1-1.09,2.654,3.9,3.9,0,0,1-5.144,0,3.774,3.774,0,0,1,0-5.308,3.9,3.9,0,0,1,5.144,0A3.365,3.365,0,0,1,893.879,293.357Z" transform="translate(-802.656 -289.323)" fill="#fff"/>
      <rect id="Rectangle_353" data-name="Rectangle 353" width="6.132" height="21.646" transform="translate(84.516 10.288)" fill="#fff"/>
      <path id="Path_1182" data-name="Path 1182" d="M914.746,321.246a15.336,15.336,0,0,1-4.341-.576,6.425,6.425,0,0,1-2.634-1.5,4.969,4.969,0,0,1-1.317-2.346,12.648,12.648,0,0,1-.349-3.107V289.888l6.132-.988v23.58a8.074,8.074,0,0,0,.123,1.481,2.551,2.551,0,0,0,.473,1.111,2.5,2.5,0,0,0,1.008.741,5.507,5.507,0,0,0,1.769.37Z" transform="translate(-812.571 -288.9)" fill="#fff"/>
      <path id="Path_1183" data-name="Path 1183" d="M988.91,309.536c-.7-.15-1.434-.282-2.2-.393s-1.544-.2-2.325-.266-1.545-.1-2.285-.1a13.294,13.294,0,0,0-4.649.762,9.674,9.674,0,0,0-3.479,2.161,9.228,9.228,0,0,0-2.159,3.353,12.144,12.144,0,0,0-.741,4.341q0,4.775,2.385,7.43a8.77,8.77,0,0,0,6.874,2.654,10.876,10.876,0,0,0,2.282-.226,9.738,9.738,0,0,0,2.037-.68v.783a4.135,4.135,0,0,1-1.091,2.962,4.984,4.984,0,0,1-3.724,1.152,17.845,17.845,0,0,1-3.6-.329,18.053,18.053,0,0,1-3.023-.9l-1.07,5.142a24.631,24.631,0,0,0,3.661.928,22.743,22.743,0,0,0,3.951.348q5.637,0,8.334-2.57t2.7-7.881V310.008C990.233,309.844,989.611,309.686,988.91,309.536Zm-4.259,14.177a6.73,6.73,0,0,1-1.4.575,6.1,6.1,0,0,1-1.769.247q-4.159,0-4.157-5.145a6.636,6.636,0,0,1,1.194-4.072,4.218,4.218,0,0,1,3.621-1.605c.548,0,1.028.019,1.439.061s.767.09,1.07.145Z" transform="translate(-845.521 -298.98)" fill="#fff"/>
      <path id="Path_1184" data-name="Path 1184" d="M1023.01,293.357a3.365,3.365,0,0,1-1.091,2.654,3.9,3.9,0,0,1-5.144,0,3.774,3.774,0,0,1,0-5.308,3.9,3.9,0,0,1,5.144,0A3.367,3.367,0,0,1,1023.01,293.357Z" transform="translate(-868.147 -289.323)" fill="#fff"/>
      <rect id="Rectangle_354" data-name="Rectangle 354" width="6.132" height="21.646" transform="translate(148.155 10.288)" fill="#fff"/>
      <path id="Path_1185" data-name="Path 1185" d="M785.166,315.315a10.433,10.433,0,0,0-2.183-3.579,9.794,9.794,0,0,0-3.352-2.306,10.988,10.988,0,0,0-4.3-.822,10.874,10.874,0,0,0-4.259.822,10.011,10.011,0,0,0-3.373,2.306,10.515,10.515,0,0,0-2.222,3.579,12.927,12.927,0,0,0-.8,4.649,13.38,13.38,0,0,0,.783,4.671,10.642,10.642,0,0,0,2.18,3.621,9.617,9.617,0,0,0,3.355,2.327,11.076,11.076,0,0,0,4.341.823,11.2,11.2,0,0,0,4.383-.823,9.644,9.644,0,0,0,3.355-2.327,10.166,10.166,0,0,0,2.14-3.621,14.093,14.093,0,0,0,.741-4.671A13.281,13.281,0,0,0,785.166,315.315Zm-6.6,8.909a3.673,3.673,0,0,1-3.232,1.668,3.718,3.718,0,0,1-3.25-1.668,7.783,7.783,0,0,1-1.152-4.5,7.6,7.6,0,0,1,1.152-4.467,3.748,3.748,0,0,1,3.25-1.623,3.7,3.7,0,0,1,3.232,1.623,7.725,7.725,0,0,1,1.13,4.467A7.912,7.912,0,0,1,778.562,324.224Z" transform="translate(-740.84 -298.895)" fill="#fff"/>
      <path id="Path_1186" data-name="Path 1186" d="M945.885,315.315a10.44,10.44,0,0,0-2.182-3.579,9.794,9.794,0,0,0-3.353-2.306,11.553,11.553,0,0,0-8.56,0,10.009,10.009,0,0,0-3.373,2.306,10.522,10.522,0,0,0-2.222,3.579,12.935,12.935,0,0,0-.8,4.649,13.389,13.389,0,0,0,.783,4.671,10.6,10.6,0,0,0,2.183,3.621,9.6,9.6,0,0,0,3.352,2.327,11.977,11.977,0,0,0,8.724,0,9.641,9.641,0,0,0,3.355-2.327,10.167,10.167,0,0,0,2.14-3.621,14.09,14.09,0,0,0,.741-4.671A13.214,13.214,0,0,0,945.885,315.315Zm-6.6,9.156a3.669,3.669,0,0,1-3.231,1.666,3.72,3.72,0,0,1-3.25-1.666,7.8,7.8,0,0,1-1.152-4.507A7.593,7.593,0,0,1,932.8,315.5a3.754,3.754,0,0,1,3.25-1.626,3.7,3.7,0,0,1,3.231,1.626,7.71,7.71,0,0,1,1.131,4.465A7.921,7.921,0,0,1,939.28,324.472Z" transform="translate(-822.352 -298.895)" fill="#fff"/>
    </g>
    <g id="Group_558" data-name="Group 558" transform="translate(611.741 249.535)">
      <g id="Group_557" data-name="Group 557" transform="translate(0 0)">
        <path id="Path_1187" data-name="Path 1187" d="M648.575,347.131l-36.834-22.862.006-28.343,36.834,22.862Z" transform="translate(-611.741 -273.063)" fill="#414293"/>
        <path id="Path_1188" data-name="Path 1188" d="M611.741,300.741l36.834-22.862-.006-28.343L611.746,272.4Z" transform="translate(-611.741 -249.535)" fill="#f8b133"/>
        <path id="Path_1189" data-name="Path 1189" d="M634.576,310.1l-22.835,14.172.008-28.341Z" transform="translate(-611.741 -273.064)" fill="#1d1d1b"/>
      </g>
    </g>
  </g>
</svg>
