<svg xmlns="http://www.w3.org/2000/svg" width="123.54" height="44.333" viewBox="0 0 123.54 44.333">
  <g id="Group_559" data-name="Group 559" transform="translate(-611.741 -249.535)">
    <g id="Group_556" data-name="Group 556" transform="translate(642.588 261.147)">
      <path id="Path_1178" data-name="Path 1178" d="M724.838,312.3q-4.163,0-6.343-2.315a9.227,9.227,0,0,1-2.18-6.577,10.115,10.115,0,0,1,.665-3.781,8.149,8.149,0,0,1,1.823-2.808,7.617,7.617,0,0,1,2.759-1.737,9.95,9.95,0,0,1,3.473-.591,11.157,11.157,0,0,1,1.971.16,12.9,12.9,0,0,1,1.552.369,7.655,7.655,0,0,1,1.109.431q.443.222.64.345l-1.109,3.1a9.314,9.314,0,0,0-1.835-.714,8.759,8.759,0,0,0-2.377-.3,5.248,5.248,0,0,0-1.736.3,3.928,3.928,0,0,0-1.5.948,4.716,4.716,0,0,0-1.047,1.687,7.073,7.073,0,0,0-.394,2.513,8.98,8.98,0,0,0,.259,2.2,4.674,4.674,0,0,0,.838,1.761,4.013,4.013,0,0,0,1.515,1.17,5.388,5.388,0,0,0,2.266.431,10.313,10.313,0,0,0,1.5-.1,11.14,11.14,0,0,0,1.183-.234,6.2,6.2,0,0,0,.911-.308q.394-.172.714-.32l1.059,3.079a8.989,8.989,0,0,1-2.29.887A13.362,13.362,0,0,1,724.838,312.3Z" transform="translate(-716.315 -292.845)" fill="#fff"/>
      <path id="Path_1179" data-name="Path 1179" d="M810.974,309.513a20.545,20.545,0,0,1,2.414-.505,19.865,19.865,0,0,1,3.1-.234,7.568,7.568,0,0,1,2.746.431,4.133,4.133,0,0,1,1.737,1.219,4.756,4.756,0,0,1,.911,1.872,9.965,9.965,0,0,1,.271,2.414v7.315h-3.67v-6.872a4.953,4.953,0,0,0-.468-2.512,1.91,1.91,0,0,0-1.749-.739q-.394,0-.837.037t-.788.086v10h-3.67Z" transform="translate(-783.051 -302.912)" fill="#fff"/>
      <path id="Path_1180" data-name="Path 1180" d="M860.168,288.9a7.107,7.107,0,0,1,1.712.173,8.262,8.262,0,0,1,1.146.37l-.64,2.882a3.512,3.512,0,0,0-.875-.246,6.385,6.385,0,0,0-.973-.074,2.986,2.986,0,0,0-1.121.185,1.729,1.729,0,0,0-.714.505,1.949,1.949,0,0,0-.37.764,3.959,3.959,0,0,0-.11.96v.64h4.532v3.054h-4.532v9.9h-3.67V294.368a5.038,5.038,0,0,1,5.616-5.468Z" transform="translate(-813.775 -288.9)" fill="#fff"/>
      <path id="Path_1181" data-name="Path 1181" d="M890.938,291.9a2.013,2.013,0,0,1-.653,1.588,2.336,2.336,0,0,1-3.079,0,2.259,2.259,0,0,1,0-3.177,2.336,2.336,0,0,1,3.079,0A2.014,2.014,0,0,1,890.938,291.9Z" transform="translate(-836.337 -289.489)" fill="#fff"/>
      <rect id="Rectangle_353" data-name="Rectangle 353" width="3.67" height="12.956" transform="translate(50.587 6.158)" fill="#fff"/>
      <path id="Path_1182" data-name="Path 1182" d="M911.276,308.26a9.179,9.179,0,0,1-2.6-.345,3.846,3.846,0,0,1-1.577-.9,2.975,2.975,0,0,1-.788-1.4,7.576,7.576,0,0,1-.209-1.859V289.491l3.67-.591v14.114a4.832,4.832,0,0,0,.074.887,1.525,1.525,0,0,0,.283.665,1.5,1.5,0,0,0,.6.443,3.294,3.294,0,0,0,1.059.222Z" transform="translate(-850.12 -288.9)" fill="#fff"/>
      <path id="Path_1183" data-name="Path 1183" d="M981.749,309.23c-.418-.09-.858-.169-1.317-.235s-.924-.118-1.391-.159-.924-.062-1.368-.062a7.958,7.958,0,0,0-2.783.456,5.789,5.789,0,0,0-2.083,1.293,5.523,5.523,0,0,0-1.292,2.007,7.267,7.267,0,0,0-.443,2.6,6.417,6.417,0,0,0,1.428,4.447,5.25,5.25,0,0,0,4.114,1.588,6.512,6.512,0,0,0,1.366-.135,5.831,5.831,0,0,0,1.219-.407v.468a2.475,2.475,0,0,1-.653,1.773,2.983,2.983,0,0,1-2.229.689,10.682,10.682,0,0,1-2.155-.2,10.808,10.808,0,0,1-1.809-.541l-.64,3.078a14.744,14.744,0,0,0,2.191.555,13.615,13.615,0,0,0,2.365.208,7.012,7.012,0,0,0,4.988-1.538,6.242,6.242,0,0,0,1.614-4.717V309.512C982.541,309.414,982.169,309.32,981.749,309.23Zm-2.549,8.486a4.029,4.029,0,0,1-.837.344,3.649,3.649,0,0,1-1.059.148q-2.49,0-2.488-3.079a3.971,3.971,0,0,1,.715-2.437,2.525,2.525,0,0,1,2.168-.961c.328,0,.615.011.861.036s.459.054.64.087Z" transform="translate(-895.924 -302.912)" fill="#fff"/>
      <path id="Path_1184" data-name="Path 1184" d="M1020.069,291.9a2.014,2.014,0,0,1-.653,1.588,2.336,2.336,0,0,1-3.079,0,2.259,2.259,0,0,1,0-3.177,2.336,2.336,0,0,1,3.079,0A2.015,2.015,0,0,1,1020.069,291.9Z" transform="translate(-927.377 -289.489)" fill="#fff"/>
      <rect id="Rectangle_354" data-name="Rectangle 354" width="3.67" height="12.956" transform="translate(88.678 6.158)" fill="#fff"/>
      <path id="Path_1185" data-name="Path 1185" d="M776.938,312.623a6.244,6.244,0,0,0-1.306-2.142,5.862,5.862,0,0,0-2.007-1.38,6.577,6.577,0,0,0-2.575-.492,6.508,6.508,0,0,0-2.549.492,5.993,5.993,0,0,0-2.019,1.38,6.294,6.294,0,0,0-1.33,2.142,7.737,7.737,0,0,0-.481,2.783,8.008,8.008,0,0,0,.469,2.8,6.369,6.369,0,0,0,1.3,2.168,5.755,5.755,0,0,0,2.008,1.393,6.629,6.629,0,0,0,2.6.492,6.7,6.7,0,0,0,2.624-.492,5.774,5.774,0,0,0,2.008-1.393,6.085,6.085,0,0,0,1.281-2.168,8.435,8.435,0,0,0,.443-2.8A7.951,7.951,0,0,0,776.938,312.623Zm-3.953,5.332a2.2,2.2,0,0,1-1.934,1,2.226,2.226,0,0,1-1.945-1,4.658,4.658,0,0,1-.689-2.7,4.549,4.549,0,0,1,.689-2.674,2.243,2.243,0,0,1,1.945-.972,2.215,2.215,0,0,1,1.934.972,4.624,4.624,0,0,1,.677,2.674A4.735,4.735,0,0,1,772.985,317.955Z" transform="translate(-750.407 -302.794)" fill="#fff"/>
      <path id="Path_1186" data-name="Path 1186" d="M937.657,312.623a6.249,6.249,0,0,0-1.306-2.142,5.863,5.863,0,0,0-2.007-1.38,6.915,6.915,0,0,0-5.124,0,5.99,5.99,0,0,0-2.019,1.38,6.3,6.3,0,0,0-1.33,2.142,7.741,7.741,0,0,0-.481,2.783,8.015,8.015,0,0,0,.468,2.8,6.346,6.346,0,0,0,1.306,2.168,5.749,5.749,0,0,0,2.006,1.393,7.169,7.169,0,0,0,5.222,0,5.771,5.771,0,0,0,2.008-1.393,6.086,6.086,0,0,0,1.281-2.168,8.433,8.433,0,0,0,.443-2.8A7.911,7.911,0,0,0,937.657,312.623ZM933.7,318.1a2.2,2.2,0,0,1-1.934,1,2.227,2.227,0,0,1-1.945-1,4.669,4.669,0,0,1-.689-2.7,4.545,4.545,0,0,1,.689-2.672,2.247,2.247,0,0,1,1.945-.973,2.216,2.216,0,0,1,1.934.973,4.615,4.615,0,0,1,.677,2.672A4.741,4.741,0,0,1,933.7,318.1Z" transform="translate(-863.717 -302.794)" fill="#fff"/>
    </g>
    <g id="Group_558" data-name="Group 558" transform="translate(611.741 249.535)">
      <g id="Group_557" data-name="Group 557" transform="translate(0 0)">
        <path id="Path_1187" data-name="Path 1187" d="M633.787,326.574,611.741,312.89l0-16.965,22.047,13.684Z" transform="translate(-611.741 -282.241)" fill="#414293"/>
        <path id="Path_1188" data-name="Path 1188" d="M611.741,280.184,633.787,266.5l0-16.965-22.04,13.684Z" transform="translate(-611.741 -249.535)" fill="#f8b133"/>
        <path id="Path_1189" data-name="Path 1189" d="M625.409,304.408l-13.668,8.483,0-16.964Z" transform="translate(-611.741 -282.243)" fill="#1d1d1b"/>
      </g>
    </g>
  </g>
</svg>
