<svg id="Group_44" data-name="Group 44" xmlns="http://www.w3.org/2000/svg" width="92.411" height="90.61" viewBox="0 0 92.411 90.61">
  <path id="Path_40" data-name="Path 40" d="M21.391,270.79v-.138a25.943,25.943,0,0,0,11.875,2.915H49.538a5.971,5.971,0,0,0,4.6-9.769,5.961,5.961,0,0,0,1.491-9.192A5.956,5.956,0,0,0,57,245.868a5.933,5.933,0,0,0-2.9-11.16H37.413v-4.817A8.035,8.035,0,0,0,29.467,222H25.255a1.473,1.473,0,0,0-1.441,1.779l.329,1.547a22.282,22.282,0,0,1,.25,7.917l-.286,1.938a2.155,2.155,0,0,1-1.264,1.683,10.459,10.459,0,0,0-1.452.705v-.741a1.431,1.431,0,0,0-1.509-1.384H6.514A1.435,1.435,0,0,0,5,236.829v33.96a1.521,1.521,0,0,0,1.514,1.489H19.882a1.517,1.517,0,0,0,1.509-1.488Zm1.285-30.577c.442-.23.888-.449,1.344-.65a5.1,5.1,0,0,0,3.006-3.95l.284-1.938a25.251,25.251,0,0,0-.237-8.728h2.394a5.091,5.091,0,0,1,5,4.944v6.29a1.428,1.428,0,0,0,1.419,1.473H54.1a3.043,3.043,0,0,1,3.081,2.987,2.839,2.839,0,0,1-.884,2.075,2.958,2.958,0,0,1-2.134.831H47.983a1.508,1.508,0,0,0-1.473,1.513,1.7,1.7,0,0,0,.19.782,1.529,1.529,0,0,0,1.3.835h4.364a2.947,2.947,0,0,1,0,5.893H46.714a1.473,1.473,0,1,0,0,2.947h4.494a3.039,3.039,0,1,1,0,6.077H45.431a1.473,1.473,0,1,0,0,2.947h4.107a3.039,3.039,0,0,1,0,6.078H33.266a23,23,0,0,1-10.59-2.6l-1.285-.685v-26.44Zm-4.232,29.118H7.947v-30.94h10.5Z" transform="translate(-5 -182.957)" fill="#1d1d1b"/>
  <path id="Path_41" data-name="Path 41" d="M265.978,10H265.9v.007a24.376,24.376,0,0,0-19.129,39.517l-3.485,8.135a1.478,1.478,0,0,0,1.361,2.055,1.5,1.5,0,0,0,.256-.022l12.922-2.28a23.584,23.584,0,0,0,8.032,1.391h.089a24.4,24.4,0,0,0,.031-48.8Zm-.037,45.857h-.03a20.822,20.822,0,0,1-7.423-1.341,1.475,1.475,0,0,0-.778-.067l-10.63,1.869,2.774-6.455a1.472,1.472,0,0,0-.236-1.54,21.467,21.467,0,1,1,16.324,7.535Z" transform="translate(-197.945 -10)" fill="#1d1d1b"/>
  <path id="Path_42" data-name="Path 42" d="M323.155,117.947H330.3a1.473,1.473,0,1,0,0-2.947h-7.147a1.473,1.473,0,0,0,0,2.947Zm16.413,3.683H323.155a1.473,1.473,0,0,0,0,2.947h16.413a1.473,1.473,0,0,0,0-2.947Z" transform="translate(-263.36 -95.663)" fill="#1d1d1b"/>
</svg>
