<svg xmlns="http://www.w3.org/2000/svg" width="85.482" height="95.282" viewBox="0 0 85.482 95.282">
  <g id="Group_39" data-name="Group 39" transform="translate(1.5 1.5)">
    <path id="Path_44" data-name="Path 44" d="M304.279,92.232A17.628,17.628,0,1,1,286.813,77a17.564,17.564,0,0,1,11.94,4.659" transform="translate(-253.095 -77)" fill="none" stroke="#414293" stroke-linecap="round" stroke-linejoin="round" stroke-width="3"/>
    <path id="Path_45" data-name="Path 45" d="M305.766,120.593l8.45,8.45,15.4-15.4" transform="translate(-280.298 -104.253)" fill="none" stroke="#414293" stroke-linecap="round" stroke-linejoin="round" stroke-width="3"/>
    <line id="Line_6" data-name="Line 6" x2="35.254" transform="translate(12.066 59.361)" fill="none" stroke="#414293" stroke-linecap="round" stroke-linejoin="round" stroke-width="3"/>
    <line id="Line_7" data-name="Line 7" x2="27.996" transform="translate(12.066 66.749)" fill="none" stroke="#414293" stroke-linecap="round" stroke-linejoin="round" stroke-width="3"/>
    <line id="Line_8" data-name="Line 8" x2="10.369" transform="translate(12.066 74.137)" fill="none" stroke="#414293" stroke-linecap="round" stroke-linejoin="round" stroke-width="3"/>
    <path id="Path_46" data-name="Path 46" d="M370.177,280.293,399.169,251.3a2.1,2.1,0,0,0,0-2.971l-6.939-6.94a2.1,2.1,0,0,0-2.971,0L360.4,270.245a11.656,11.656,0,0,0-3.346,6.989l-.8,7.369,7.273-1.006A11.658,11.658,0,0,0,370.177,280.293Z" transform="translate(-317.848 -198.793)" fill="none" stroke="#414293" stroke-linecap="round" stroke-linejoin="round" stroke-width="3"/>
    <line id="Line_9" data-name="Line 9" x2="9.911" y2="9.911" transform="translate(42.801 71.206)" fill="none" stroke="#414293" stroke-linecap="round" stroke-linejoin="round" stroke-width="3"/>
    <path id="Path_47" data-name="Path 47" d="M470.85,257.316l11.471,11.471a2.558,2.558,0,0,1,0,3.618l-10.233,10.233" transform="translate(-403.065 -211.094)" fill="none" stroke="#414293" stroke-linecap="round" stroke-linejoin="round" stroke-width="3"/>
    <path id="Path_48" data-name="Path 48" d="M503.7,241.527l2.427-2.428a1.032,1.032,0,0,1,1.459,0l1.933,1.933a1.032,1.032,0,0,1,0,1.459l-2.427,2.427" transform="translate(-427.497 -197.323)" fill="none" stroke="#414293" stroke-linecap="round" stroke-linejoin="round" stroke-width="3"/>
    <line id="Line_10" data-name="Line 10" x2="42.512" transform="translate(12.066 44.586)" fill="none" stroke="#414293" stroke-linecap="round" stroke-linejoin="round" stroke-width="3"/>
    <line id="Line_11" data-name="Line 11" x2="42.512" transform="translate(12.066 51.973)" fill="none" stroke="#414293" stroke-linecap="round" stroke-linejoin="round" stroke-width="3"/>
    <path id="Path_49" data-name="Path 49" d="M420.566,113.4h6.049a6.49,6.49,0,0,1,6.49,6.49v22.465" transform="translate(-365.671 -104.072)" fill="none" stroke="#414293" stroke-linecap="round" stroke-linejoin="round" stroke-width="3"/>
    <path id="Path_50" data-name="Path 50" d="M273.849,181.07v8.795a6.49,6.49,0,0,1-6.49,6.49H212.9a6.49,6.49,0,0,1-6.49-6.49V119.894a6.49,6.49,0,0,1,6.49-6.49h5.576" transform="translate(-206.415 -104.072)" fill="none" stroke="#414293" stroke-linecap="round" stroke-linejoin="round" stroke-width="3"/>
    <path id="Path_51" data-name="Path 51" d="M263.321,400.141c4.147-3.09,5.184,1.058,8.295.091,2.97-.923,4.148-6.292,6.221-2.165,1.929,3.838,5.184,2.165,5.184,2.165" transform="translate(-248.734 -314.62)" fill="none" stroke="#414293" stroke-linecap="round" stroke-linejoin="round" stroke-width="3"/>
  </g>
</svg>
