<svg xmlns="http://www.w3.org/2000/svg" width="85" height="58" viewBox="0 0 85 58">
  <g id="Group_574" data-name="Group 574" transform="translate(83.5 1.5) rotate(90)">
    <path id="Union_2" data-name="Union 2" d="M22.916,4.557V66.51L7.793,51.478a4.173,4.173,0,0,0-3.21-1.366,4.171,4.171,0,0,0-3.208,1.366,4.385,4.385,0,0,0,0,6.377L23.493,79.839A4.337,4.337,0,0,0,27.385,82q.116,0,.232,0A4.336,4.336,0,0,0,31.5,79.842l22.12-21.987a4.385,4.385,0,0,0,0-6.377,4.45,4.45,0,0,0-6.416,0L32.083,66.512V4.557A4.317,4.317,0,0,0,27.5,0,4.318,4.318,0,0,0,22.916,4.557Z" transform="translate(0 0)" fill="#f8b133" stroke="#414293" stroke-width="3"/>
  </g>
</svg>
