<svg id="Group_534" data-name="Group 534" xmlns="http://www.w3.org/2000/svg" width="69" height="69" viewBox="0 0 69 69">
  <path id="Path_1161" data-name="Path 1161" d="M0,0H69V69H0Z" fill="none"/>
  <path id="Path_1162" data-name="Path 1162" d="M4,42.25a8.585,8.585,0,0,0,2.875,6.382v3.68a4.313,4.313,0,0,0,8.625,0V50.875h23v1.438a4.313,4.313,0,0,0,8.625,0v-3.68A8.585,8.585,0,0,0,50,42.25V13.5C50,3.438,39.708,2,27,2S4,3.438,4,13.5Zm10.063,2.875a4.313,4.313,0,1,1,4.313-4.312A4.307,4.307,0,0,1,14.063,45.125Zm25.875,0a4.313,4.313,0,1,1,4.313-4.312A4.307,4.307,0,0,1,39.938,45.125Zm4.313-17.25H9.75V13.5h34.5Z" transform="translate(7.5 3.75)" fill="#fff"/>
</svg>
