<svg xmlns="http://www.w3.org/2000/svg" width="32" height="38.15" viewBox="0 0 32 38.15">
  <path id="XMLID_264_" d="M24,4.949A15.946,15.946,0,0,0,12.7,32.2L23.3,42.8a.967.967,0,0,0,1.4,0L35.3,32.2A16.233,16.233,0,0,0,40,20.9,15.961,15.961,0,0,0,24,4.949Zm0,1.926A14.019,14.019,0,0,1,33.9,30.8L24,40.7l-9.9-9.9A14.025,14.025,0,0,1,24,6.875ZM23.988,13.7A7.459,7.459,0,0,0,18.8,15.8a7.107,7.107,0,0,0-2.1,5.1A7.357,7.357,0,0,0,18.8,26,7.243,7.243,0,0,0,29,26a7.105,7.105,0,0,0,2.1-5.1,6.855,6.855,0,0,0-2-5.1A7.2,7.2,0,0,0,23.988,13.7Zm.012,2a5.3,5.3,0,0,1,3.7,1.5,5.314,5.314,0,0,1,0,7.4,5.311,5.311,0,0,1-7.4,0,5.314,5.314,0,0,1,0-7.4A5.3,5.3,0,0,1,24,15.7Z" transform="translate(-8 -4.949)" fill="#b51212"/>
</svg>
