<svg xmlns="http://www.w3.org/2000/svg" width="63.371" height="63.369" viewBox="0 0 63.371 63.369">
  <g id="Group_553" data-name="Group 553" transform="translate(-1 -1)">
    <path id="Path_1172" data-name="Path 1172" d="M57.661,19.713V19.7s0-.008,0-.015L55.893,9.1a2.111,2.111,0,0,0-2.431-1.736l-12.5,2.083H30.572V3.112A2.113,2.113,0,0,0,28.46,1H3.112A2.113,2.113,0,0,0,1,3.112V62.257a2.113,2.113,0,0,0,2.112,2.112H41.134a2.113,2.113,0,0,0,2.112-2.112V37.085L47.5,62.606a2.112,2.112,0,0,0,2.081,1.764,2,2,0,0,0,.351-.03l12.674-2.112A2.114,2.114,0,0,0,64.342,59.8Zm-12.3,4.368,8.487-1.544.393,2.359-8.485,1.546Zm6.711-12.2,1.082,6.489-8.485,1.544-1.1-6.616ZM5.225,13.674h8.449V51.7H5.225Zm12.674,0h8.449V51.7H17.9Zm8.449-4.225H17.9V5.225h8.449ZM13.674,5.225V9.449H5.225V5.225ZM5.225,55.92h8.449v4.225H5.225Zm12.674,0h8.449v4.225H17.9Zm21.123,4.225H30.572V13.674h8.449Zm12.3-.319L46.451,30.608l8.485-1.546,4.89,29.346Z" transform="translate(0 0)" fill="#1d1d1b"/>
    <path id="Path_1173" data-name="Path 1173" d="M18.112,25.9a2.113,2.113,0,0,0,2.112-2.112V11.112a2.112,2.112,0,1,0-4.225,0V23.786A2.113,2.113,0,0,0,18.112,25.9Zm0,21.123a2.113,2.113,0,0,0,2.112-2.112V32.235a2.112,2.112,0,1,0-4.225,0V44.909A2.113,2.113,0,0,0,18.112,47.022Z" transform="translate(16.685 8.899)" fill="#1d1d1b"/>
  </g>
</svg>
