<svg xmlns="http://www.w3.org/2000/svg" width="36.503" height="44.927" viewBox="0 0 36.503 44.927">
  <path id="Path_37" data-name="Path 37" d="M26.464,5.616h2.808V8.424H26.464Zm5.616,0h2.808V8.424H32.08Zm-5.616,5.616h2.808V14.04H26.464Zm5.616,0h2.808V14.04H32.08Zm-5.616,5.616h2.808v2.808H26.464Zm5.616,0h2.808v2.808H32.08Zm-5.616,5.616h2.808v2.808H26.464Zm5.616,0h2.808v2.808H32.08ZM26.464,28.08h2.808v2.808H26.464Zm5.616,0h2.808v2.808H32.08ZM37.7,0H23.656a2.808,2.808,0,0,0-2.808,2.808v8.424H6.808A2.808,2.808,0,0,0,4,14.04v28.08a2.808,2.808,0,0,0,2.808,2.808H37.7A2.808,2.808,0,0,0,40.5,42.119V2.808A2.808,2.808,0,0,0,37.7,0ZM15.232,42.119H12.424V36.5h2.808Zm2.808,0V33.7H9.616v8.424H6.808V14.04h14.04v28.08Zm14.04,0H29.272V36.5H32.08Zm5.616,0H34.887V33.7H26.464v8.424H23.656V2.808H37.7ZM9.616,16.848h2.808v2.808H9.616Zm5.616,0H18.04v2.808H15.232ZM9.616,22.464h2.808v2.808H9.616Zm5.616,0H18.04v2.808H15.232ZM9.616,28.08h2.808v2.808H9.616Zm5.616,0H18.04v2.808H15.232Z" transform="translate(-4)" fill="#fff"/>
</svg>
