<svg xmlns="http://www.w3.org/2000/svg" width="33.513" height="33.512" viewBox="0 0 33.513 33.512">
  <path id="Path_33" data-name="Path 33" d="M17.157.4A16.756,16.756,0,1,0,33.913,17.156,16.757,16.757,0,0,0,17.157.4Zm0,30.02A13.265,13.265,0,1,1,30.422,17.155,13.264,13.264,0,0,1,17.157,30.42Zm-4.362-13.7a2.86,2.86,0,0,0,2.616-3.055,2.862,2.862,0,0,0-2.618-3.055,2.862,2.862,0,0,0-2.618,3.055A2.862,2.862,0,0,0,12.795,16.72Zm8.726,0a2.861,2.861,0,0,0,2.618-3.055,2.862,2.862,0,0,0-2.618-3.055A2.863,2.863,0,0,0,18.9,13.666,2.863,2.863,0,0,0,21.52,16.72Zm3.213,2.768a1.32,1.32,0,0,0-1.759.559c-.059.115-1.517,2.781-5.816,2.781-4.278,0-5.744-2.641-5.818-2.779A1.31,1.31,0,0,0,9,21.232c.087.173,2.178,4.214,8.155,4.214s8.066-4.043,8.151-4.215a1.3,1.3,0,0,0-.576-1.742Z" transform="translate(-0.4 -0.4)" fill="#fff"/>
</svg>
