<svg xmlns="http://www.w3.org/2000/svg" width="51.289" height="49.823" viewBox="0 0 51.289 49.823">
  <g id="Group_23" data-name="Group 23" transform="translate(0.1 0.1)">
    <path id="Path_38" data-name="Path 38" d="M236.413-155.533h-4.149a1.067,1.067,0,0,0-1.064,1.064v16.7a1.067,1.067,0,0,0,1.064,1.064h4.149a1.067,1.067,0,0,0,1.064-1.064v-16.7A1.067,1.067,0,0,0,236.413-155.533Zm-1.064,16.7h-2.022v-14.576h2.022Zm-7.341-7.554h-4.149a1.067,1.067,0,0,0-1.064,1.064v7.554a1.067,1.067,0,0,0,1.064,1.064h4.149a1.067,1.067,0,0,0,1.064-1.064v-7.554A1.067,1.067,0,0,0,228.008-146.383Zm-1.064,7.554h-2.021v-5.426h2.021Zm-3.171-12.735,19.683-19.683,4.022,4.032a1.06,1.06,0,0,0,1.5,0l12.267-12.267-.011,4.692a1.049,1.049,0,0,0,1.053,1.053h.011a1.058,1.058,0,0,0,1.064-1.053h0l.011-7.277a1.048,1.048,0,0,0-.309-.734,1.089,1.089,0,0,0-.755-.3h-7.277A1.067,1.067,0,0,0,254-182a1.062,1.062,0,0,0,1.032,1.032h0l4.713-.021-11.512,11.523L244.2-173.5a1.06,1.06,0,0,0-1.5,0l-20.438,20.438a1.05,1.05,0,0,0-.021,1.5,1.06,1.06,0,0,0,1.5.021c.011,0,.021-.011.032-.021Zm38.706-1.149v-15.9a1.058,1.058,0,0,0-1.043-1.075h-4.117a1.123,1.123,0,0,0-1.117,1.075v14.746a14.474,14.474,0,0,0-2.022.3v-9.5a1.086,1.086,0,0,0-1.064-1.085H249a1.113,1.113,0,0,0-1.1,1.085v12.321c-.638.479-1.383,1-2.022,1.575v-7.788a1.05,1.05,0,0,0-1.085-1.021h-4.117a1.034,1.034,0,0,0-1.075,1.021v19.2a1.067,1.067,0,0,0,1.075,1.053H244.8a1.076,1.076,0,0,0,1.085-1.053v-.447c2.873,2.394,6.756,4.724,11.129,4.724,3.628,0,7.511-1.67,11.246-4.82a30.505,30.505,0,0,0,4.543-4.756,1.07,1.07,0,0,0-.011-1.255C272.608-144.564,268.438-150.2,262.48-152.714Zm-4.149-14.842h2.022v14.119a11.86,11.86,0,0,0-2.022-.372Zm-8.3,5.533h2.022v9.1c-.638.255-1.277.553-2.022.9Zm-8.3,6.171h2.021v8.65a19.844,19.844,0,0,0-2.021,2.2Zm2.021,17.023h-2.021v-3.543a19.845,19.845,0,0,0,2.021,2.2ZM257-135.605c-2.5,0-6.479-.958-11.235-5.543a29.568,29.568,0,0,1-2.351-2.543,28.814,28.814,0,0,1,2.181-2.373,25.807,25.807,0,0,1,4.043-3.256,16.223,16.223,0,0,1,3.841-1.862,11.621,11.621,0,0,1,3.511-.585h.287a11.721,11.721,0,0,1,3.671.723h0c4.628,1.67,8.341,5.777,9.629,7.341C268.938-141.691,263.405-135.605,257-135.605Z" transform="translate(-221.937 183.1)" fill="#fff" stroke="#fff" stroke-width="0.2"/>
    <path id="Path_39" data-name="Path 39" d="M492.075,120.8a7.075,7.075,0,1,0,7.075,7.075h0A7.086,7.086,0,0,0,492.075,120.8Zm0,12.023a4.947,4.947,0,1,1,4.947-4.947,4.945,4.945,0,0,1-4.947,4.947Z" transform="translate(-457.012 -88.467)" fill="#fff" stroke="#fff" stroke-width="0.2"/>
  </g>
</svg>
