<svg xmlns="http://www.w3.org/2000/svg" width="44" height="44" viewBox="0 0 44 44">
  <g id="Layer_2" data-name="Layer 2" transform="translate(0.165)">
    <g id="people" transform="translate(0 0)">
      <rect id="Rectangle_152" data-name="Rectangle 152" width="44" height="44" transform="translate(-0.165)" fill="#fff" opacity="0"/>
      <path id="Path_32" data-name="Path 32" d="M14.883,17.723a7.361,7.361,0,1,0-7.361-7.361A7.361,7.361,0,0,0,14.883,17.723Zm0-11.042A3.681,3.681,0,1,1,11.2,10.361,3.681,3.681,0,0,1,14.883,6.681ZM29.605,21.4a5.521,5.521,0,1,0-5.521-5.521A5.521,5.521,0,0,0,29.605,21.4Zm0-7.361a1.84,1.84,0,1,1-1.84,1.84A1.84,1.84,0,0,1,29.605,14.042Zm0,9.2a9.2,9.2,0,0,0-5.632,1.932A12.883,12.883,0,0,0,2,34.286a1.84,1.84,0,1,0,3.681,0,9.2,9.2,0,0,1,18.4,0,1.84,1.84,0,0,0,3.681,0,12.7,12.7,0,0,0-1.583-6.165,5.521,5.521,0,0,1,8.944,4.325,1.84,1.84,0,0,0,3.681,0A9.2,9.2,0,0,0,29.605,23.244Z" transform="translate(1.946 2.787)" fill="#fff"/>
    </g>
  </g>
</svg>
