<svg xmlns="http://www.w3.org/2000/svg" width="35.663" height="35.011" viewBox="0 0 35.663 35.011">
  <g id="Group_22" data-name="Group 22" transform="translate(0.498 0.5)">
    <path id="Path_34" data-name="Path 34" d="M71.151,61.62V76.963c0,.692.011,1.38,0,2.071a1.356,1.356,0,0,1-.011.172c.015-.1.026-.194.04-.293a1.235,1.235,0,0,1-.077.282l.11-.263a1.5,1.5,0,0,1-.091.168c-.084.15.209-.223.022-.037s.187-.106.037-.022c-.055.033-.11.062-.168.091l.263-.11a1.235,1.235,0,0,1-.282.077c.1-.015.194-.026.293-.04a8.74,8.74,0,0,1-.929.011H42.1c-.384,0-.765,0-1.149,0a1.723,1.723,0,0,1-.194-.011c.1.015.194.026.293.04a1.235,1.235,0,0,1-.282-.077l.263.11a1.5,1.5,0,0,1-.168-.091c-.15-.084.223.209.037.022s.106.187.022.037c-.033-.055-.062-.11-.091-.168l.11.263a1.235,1.235,0,0,1-.077-.282c.015.1.026.194.04.293a5.13,5.13,0,0,1-.011-.582V63.79c0-.71.022-1.423,0-2.137v-.029l-1.1,1.1H70.931c.421,0,.842,0,1.262,0h.055a1.1,1.1,0,0,0,0-2.2H41.115c-.421,0-.842,0-1.262,0H39.8a1.113,1.113,0,0,0-1.1,1.1v17.25a2.31,2.31,0,0,0,.754,1.841,2.432,2.432,0,0,0,1.6.553H71.008a2.393,2.393,0,0,0,1.658-.615,2.36,2.36,0,0,0,.684-1.8V61.62a1.1,1.1,0,0,0-2.2,0ZM61.845,50.229v3.8l1.1-1.1H50.794c-.56,0-1.12-.018-1.68,0h-.026l1.1,1.1V50.605a5.2,5.2,0,0,1,.018-.633c-.015.1-.026.194-.04.293a1.954,1.954,0,0,1,.132-.476l-.11.263a1.783,1.783,0,0,1,.161-.3c.135-.2-.1.106-.044.048.04-.04.073-.084.113-.124s.07-.066.106-.1c.132-.121-.252.172-.029.026a2.321,2.321,0,0,1,.3-.161l-.263.11A2.134,2.134,0,0,1,51,49.423c-.1.015-.194.026-.293.04a9.923,9.923,0,0,1,1.189-.018h8a11.541,11.541,0,0,1,1.423.018c-.1-.015-.194-.026-.293-.04a1.954,1.954,0,0,1,.476.132l-.263-.11a1.783,1.783,0,0,1,.3.161c.2.135-.106-.1-.048-.044.04.04.084.073.124.113s.066.07.1.106c.121.132-.172-.252-.026-.029a2.323,2.323,0,0,1,.161.3l-.11-.263a2.134,2.134,0,0,1,.132.476c-.015-.1-.026-.194-.04-.293a1.606,1.606,0,0,1,.018.26,1.1,1.1,0,1,0,2.2,0,3,3,0,0,0-.922-2.152,3.053,3.053,0,0,0-2.049-.82c-.263,0-.531,0-.794,0H51.712c-.249,0-.5,0-.746,0a3.012,3.012,0,0,0-2.971,2.971c-.015,1.222,0,2.448,0,3.67v.124a1.113,1.113,0,0,0,1.1,1.1H61.241c.56,0,1.12.011,1.68,0h.026a1.113,1.113,0,0,0,1.1-1.1v-3.8a1.111,1.111,0,0,0-1.1-1.1A1.124,1.124,0,0,0,61.845,50.229Z" transform="translate(-38.685 -47.255)" fill="#fff" stroke="#fff" stroke-width="1"/>
    <path id="Path_35" data-name="Path 35" d="M70.759,204.514v6.473l1.1-1.1H40.723c-.421,0-.842-.007-1.262,0h-.055l1.1,1.1v-5.738a8.077,8.077,0,0,1,.011-.893c-.015.1-.026.194-.04.293a1.235,1.235,0,0,1,.077-.282l-.11.263a1.5,1.5,0,0,1,.091-.168c.084-.15-.209.223-.022.037s-.187.106-.037.022c.055-.033.11-.062.168-.091l-.263.11a1.234,1.234,0,0,1,.282-.077c-.1.015-.194.026-.293.04a8.742,8.742,0,0,1,.929-.011H69.551c.384,0,.765,0,1.149,0a1.721,1.721,0,0,1,.194.011c-.1-.015-.194-.026-.293-.04a1.234,1.234,0,0,1,.282.077l-.263-.11a1.5,1.5,0,0,1,.168.091c.15.084-.223-.209-.037-.022s-.106-.187-.022-.037c.033.055.062.11.091.168l-.11-.263a1.235,1.235,0,0,1,.077.282c-.015-.1-.026-.194-.04-.293.007.059.007.106.011.157a1.1,1.1,0,0,0,2.2,0,2.3,2.3,0,0,0-.615-1.53,2.239,2.239,0,0,0-1.445-.673c-.077-.007-.15-.011-.227-.011H40.518a2.231,2.231,0,0,0-2.166,1.771,10.218,10.218,0,0,0-.051,1.639v5.28a1.113,1.113,0,0,0,1.1,1.1H70.532c.421,0,.842,0,1.262,0h.055a1.113,1.113,0,0,0,1.1-1.1v-6.473a1.094,1.094,0,1,0-2.188,0Z" transform="translate(-38.293 -196.626)" fill="#fff" stroke="#fff" stroke-width="1"/>
    <path id="Path_36" data-name="Path 36" d="M396.7,410.682v1.134a9.21,9.21,0,0,1-.015,1.189c.015-.1.026-.194.04-.293a1.475,1.475,0,0,1-.1.329l.11-.263a1.9,1.9,0,0,1-.1.19c-.1.176.066-.1.073-.088s-.073.081-.081.088-.048.044-.07.066c-.084.088.234-.154.088-.07a1.954,1.954,0,0,1-.212.113l.263-.11a1.476,1.476,0,0,1-.329.1c.1-.015.194-.026.293-.04a3.916,3.916,0,0,1-.549.015h-3.264a4.841,4.841,0,0,1-.651-.015c.1.015.194.026.293.04a1.476,1.476,0,0,1-.329-.1l.263.11a1.907,1.907,0,0,1-.19-.1c-.176-.1.1.066.088.073s-.08-.073-.088-.081-.044-.048-.066-.07c-.088-.084.154.234.07.088a1.955,1.955,0,0,1-.113-.212l.11.263a1.474,1.474,0,0,1-.1-.329c.015.1.026.194.04.293a9.2,9.2,0,0,1-.015-1.189v-1.134l-1.1,1.1H397.8a1.1,1.1,0,0,0,0-2.2h-6.733a1.113,1.113,0,0,0-1.1,1.1c0,.706-.011,1.413,0,2.119a2.469,2.469,0,0,0,1.844,2.364,4.728,4.728,0,0,0,1.065.073h2.832c.249,0,.5,0,.75,0a2.483,2.483,0,0,0,2.342-1.749,5.465,5.465,0,0,0,.1-1.584v-1.226a1.111,1.111,0,0,0-1.1-1.1A1.128,1.128,0,0,0,396.7,410.682Z" transform="translate(-377.098 -396.318)" fill="#fff" stroke="#fff" stroke-width="1"/>
  </g>
</svg>
