<svg xmlns="http://www.w3.org/2000/svg" width="66.7" height="67.5" viewBox="0 0 66.7 67.5">
  <g id="Group_555" data-name="Group 555" transform="translate(1.35 1.75)">
    <path id="Path_1176" data-name="Path 1176" d="M35,14.5a2.946,2.946,0,0,0-3-3,.789.789,0,0,1-.8-.8V3.8H25.1V4a4.806,4.806,0,0,1-4.6,3.7A4.7,4.7,0,0,1,15.9,4V3.8H9.8V24.6a.645.645,0,0,0,.6.6h3.8a.789.789,0,0,1,.8.8l.2,3.5L21,25.4a.749.749,0,0,1,.5-.1h9.7V18.5a.789.789,0,0,1,.8-.8A3.255,3.255,0,0,0,35,14.5Z" transform="translate(-2)" fill="none" stroke="#1d1d1b" stroke-width="3.5"/>
    <path id="Path_1177" data-name="Path 1177" d="M43,25.4l5.3,3.8.1-3.2a.817.817,0,0,1,.9-.8l4.3.1a.645.645,0,0,0,.6-.6V3.8H47.4a.789.789,0,0,1-.8-.8,3.009,3.009,0,0,0-3-3,2.946,2.946,0,0,0-3,3,.789.789,0,0,1-.8.8H33V9.9h.2a4.806,4.806,0,0,1,3.7,4.6,4.7,4.7,0,0,1-3.7,4.6H33v6.1h9.7A1.438,1.438,0,0,1,43,25.4ZM15.1,49.2C7,49.2.4,55.2.4,62.7v.8a.472.472,0,0,0,.5.5H29.3a.472.472,0,0,0,.5-.5v-.8C29.8,55.3,23.2,49.2,15.1,49.2Zm6.8-10.6a6.8,6.8,0,1,0-6.8,6.8A6.872,6.872,0,0,0,21.9,38.6Zm27,10.6c-8.1,0-14.7,6-14.7,13.5v.8a.472.472,0,0,0,.5.5H63.1a.472.472,0,0,0,.5-.5v-.8C63.6,55.3,57,49.2,48.9,49.2Zm0-17.4a6.744,6.744,0,0,0-6.8,6.8,6.8,6.8,0,1,0,6.8-6.8Z" fill="none" stroke="#1d1d1b" stroke-width="3.5"/>
  </g>
</svg>
