<svg xmlns="http://www.w3.org/2000/svg" width="65.3" height="41.258" viewBox="0 0 65.3 41.258">
  <path id="Layer_14" data-name="Layer 14" d="M67.05,31.835A12.239,12.239,0,0,0,59.707,25.7a12.743,12.743,0,0,0-13.122,3.558V13.187h1.438a2.523,2.523,0,0,0,0-5.047H40.933a2.523,2.523,0,1,0,0,5.047h.606V30.5a45.169,45.169,0,0,1-21.5-16.907h5.425a2.523,2.523,0,1,0,0-5.047H14.69l-.328.151a2.523,2.523,0,0,0-.454.3l-.252.227a2.523,2.523,0,0,0-.328.5,2.371,2.371,0,0,0-.151.252A2.523,2.523,0,0,0,13,11.067V25.451a12.365,12.365,0,0,0-9.311,8.075h0a11.734,11.734,0,0,0,.681,9.16,12.239,12.239,0,0,0,7.343,6.132,12.651,12.651,0,0,0,15.7-7.8A11.759,11.759,0,0,0,26.7,31.86a12.239,12.239,0,0,0-7.343-6.107,12.465,12.465,0,0,0-1.312-.3V19.47A51.427,51.427,0,0,0,43.507,36.73a11.734,11.734,0,0,0,1.236,5.98,12.239,12.239,0,0,0,7.343,6.107,12.592,12.592,0,0,0,15.646-7.8A11.734,11.734,0,0,0,67.05,31.835Zm-44.866,2.3a6.737,6.737,0,0,1,.4,5.249A7.57,7.57,0,0,1,13.2,43.972a7.242,7.242,0,0,1-4.34-3.608,6.737,6.737,0,0,1-.4-5.249h0A7.242,7.242,0,0,1,13,30.674v6.611a2.523,2.523,0,0,0,5.047,0V30.624a7.192,7.192,0,0,1,4.138,3.533Zm40.778,5.274A7.57,7.57,0,0,1,53.6,44a7.217,7.217,0,0,1-4.34-3.608,6.788,6.788,0,0,1-.656-2.2c2.2.58,4.466,1.11,6.864,1.539h.454a2.534,2.534,0,0,0,.454-5.047c-2.3-.429-4.466-.908-6.561-1.464a7.57,7.57,0,0,1,8.4-2.725,7.242,7.242,0,0,1,4.34,3.608A6.737,6.737,0,0,1,62.962,39.405Z" transform="translate(-3.062 -8.14)" fill="#fff"/>
</svg>
