<svg xmlns="http://www.w3.org/2000/svg" width="102.171" height="95.125" viewBox="0 0 102.171 95.125">
  <g id="Group_41" data-name="Group 41" transform="translate(0.5 0.5)">
    <path id="Path_27" data-name="Path 27" d="M22.066,49.486A11.743,11.743,0,1,1,33.809,37.743,11.72,11.72,0,0,1,22.066,49.486Zm0-21.68A9.936,9.936,0,1,0,32,37.743,10.025,10.025,0,0,0,22.066,27.807ZM39.229,87.425a.853.853,0,0,1-.9-.9V60.868A6.4,6.4,0,0,0,32,54.545H12.13a6.4,6.4,0,0,0-6.323,6.323V86.7a.827.827,0,0,1-.9.723.853.853,0,0,1-.9-.9V60.868a8.1,8.1,0,0,1,8.13-8.13H32a8.1,8.1,0,0,1,8.13,8.13V86.7A.827.827,0,0,1,39.229,87.425Z" transform="translate(-4 6.519)" fill="#1d1d1b" stroke="#1d1d1b" stroke-width="1"/>
    <path id="Path_28" data-name="Path 28" d="M16.662,74.6a1.2,1.2,0,0,1-.9-.723L10.7,53.822a1.086,1.086,0,0,1,.181-.723.939.939,0,0,1,.723-.361H21.72a.939.939,0,0,1,.723.361,1.086,1.086,0,0,1,.181.723L17.565,73.876a1.2,1.2,0,0,1-.9.723ZM12.687,54.545l3.975,15.537,3.975-15.537Zm65.4-5.059A11.743,11.743,0,1,1,89.83,37.743,11.72,11.72,0,0,1,78.087,49.486Zm0-21.68a9.936,9.936,0,1,0,9.936,9.936A10.025,10.025,0,0,0,78.087,27.807ZM95.25,87.425a.853.853,0,0,1-.9-.9V60.868a6.4,6.4,0,0,0-6.323-6.323H68.151a6.4,6.4,0,0,0-6.323,6.323V86.7a.853.853,0,0,1-.9.9,1.012,1.012,0,0,1-.9-1.084V60.868a8.1,8.1,0,0,1,8.13-8.13H88.024a8.1,8.1,0,0,1,8.13,8.13V86.7A.827.827,0,0,1,95.25,87.425Z" transform="translate(1.404 6.519)" fill="#1d1d1b" stroke="#1d1d1b" stroke-width="1"/>
    <path id="Path_29" data-name="Path 29" d="M83.492,83.471a1.2,1.2,0,0,1-.9-.723L77.53,62.695a1.086,1.086,0,0,1,.181-.723.939.939,0,0,1,.723-.361H88.55a.939.939,0,0,1,.723.361,1.086,1.086,0,0,1,.181.723L84.395,82.748A1.2,1.2,0,0,1,83.492,83.471ZM79.517,63.418l3.975,15.537,3.975-15.537Zm-43.9-24.57h-.361c-.361-.361-.542-.542-.542-.9V23.13a4.473,4.473,0,0,1,4.517-4.517H51.876a4.473,4.473,0,0,1,4.517,4.517v7.227a4.473,4.473,0,0,1-4.517,4.517h-12.1l-3.433,3.613A1.37,1.37,0,0,1,35.616,38.847ZM39.229,20.42a2.779,2.779,0,0,0-2.71,2.71V35.6l2.168-2.349a.939.939,0,0,1,.723-.361H51.876a2.779,2.779,0,0,0,2.71-2.71V22.949a2.779,2.779,0,0,0-2.71-2.71H39.229ZM4.9,35.234H4.542a1.651,1.651,0,0,1-.542-.9V19.517A4.473,4.473,0,0,1,8.517,15H21.163a4.473,4.473,0,0,1,4.517,4.517v7.227a4.473,4.473,0,0,1-4.517,4.517H9.781L5.445,34.873c-.181.181-.361.361-.542.361ZM8.517,16.807a2.779,2.779,0,0,0-2.71,2.71V32.344l3.071-2.529c.181-.361.361-.361.542-.361H21.163a2.779,2.779,0,0,0,2.71-2.71V19.517a2.779,2.779,0,0,0-2.71-2.71Z" transform="translate(-4 -2.354)" fill="#1d1d1b" stroke="#1d1d1b" stroke-width="1"/>
    <path id="Path_30" data-name="Path 30" d="M16.936,29.066H7.9a.9.9,0,0,1,0-1.807h9.033a.9.9,0,0,1,0,1.807Zm0-3.613H7.9a.9.9,0,1,1,0-1.807h9.033a.9.9,0,1,1,0,1.807ZM47.649,32.68H38.616a.9.9,0,1,1,0-1.807h9.033a.9.9,0,1,1,0,1.807Zm0-3.613H38.616a.9.9,0,1,1,0-1.807h9.033a.9.9,0,1,1,0,1.807ZM96.428,21.84h-27.1a.9.9,0,0,1,0-1.807h27.1a.9.9,0,0,1,0,1.807Zm0,3.613h-27.1a.9.9,0,1,1,0-1.807h27.1a.9.9,0,0,1,0,1.807Zm-3.613,3.613H69.329a.9.9,0,0,1,0-1.807H92.815a.9.9,0,0,1,0,1.807Zm3.613-10.84H76.555a.9.9,0,0,1,0-1.807H96.428a.9.9,0,0,1,0,1.807Zm-54.2-5.42H33.2A.9.9,0,1,1,33.2,11h9.033a.9.9,0,1,1,0,1.807Z" transform="translate(-1.58 -5.58)" fill="#1d1d1b" stroke="#1d1d1b" stroke-width="1"/>
    <path id="Path_31" data-name="Path 31" d="M18.9,26.428h-.181a1.2,1.2,0,0,1-.723-.9V12.517A4.473,4.473,0,0,1,22.517,8H35.163a4.473,4.473,0,0,1,4.517,4.517V16.13a4.473,4.473,0,0,1-4.517,4.517H23.239l-3.433,5.239c-.361.361-.542.542-.9.542ZM22.517,9.807a2.779,2.779,0,0,0-2.71,2.71v9.936L21.975,19.2a.939.939,0,0,1,.723-.361H35.163a2.779,2.779,0,0,0,2.71-2.71V12.517a2.779,2.779,0,0,0-2.71-2.71H22.517ZM55.036,44.133h-.361a.994.994,0,0,1-.542-.9V17.936a4.473,4.473,0,0,1,4.517-4.517H89.362a4.473,4.473,0,0,1,4.517,4.517V32.389a4.473,4.473,0,0,1-4.517,4.517H62.624l-7.046,7.046A1.82,1.82,0,0,1,55.036,44.133Zm3.613-28.906a2.779,2.779,0,0,0-2.71,2.71V41.061l5.6-5.6c.181-.181.361-.181.723-.181h27.1a2.779,2.779,0,0,0,2.71-2.71V18.117a2.779,2.779,0,0,0-2.71-2.71H58.649Z" transform="translate(7.293 -8)" fill="#1d1d1b" stroke="#1d1d1b" stroke-width="1"/>
  </g>
</svg>
