<svg xmlns="http://www.w3.org/2000/svg" width="91.016" height="91.016" viewBox="0 0 91.016 91.016">
  <path id="Path_73" data-name="Path 73" d="M42.664,8.533h5.689a1.422,1.422,0,0,0,0-2.844H42.664a1.422,1.422,0,0,0,0,2.844ZM39.82,14.221h1.522l1.422,3.7a1.422,1.422,0,0,0,2.332.5l4.19-4.2H51.2a4.266,4.266,0,0,0,4.266-4.266V4.266A4.266,4.266,0,0,0,51.2,0H39.82a4.266,4.266,0,0,0-4.266,4.266V9.955a4.266,4.266,0,0,0,4.266,4.266ZM38.4,4.266A1.422,1.422,0,0,1,39.82,2.844H51.2a1.422,1.422,0,0,1,1.422,1.422V9.955A1.422,1.422,0,0,1,51.2,11.377H48.7a1.422,1.422,0,0,0-1.007.415l-3.06,3.063-.984-2.56a1.422,1.422,0,0,0-1.325-.919h-2.5A1.422,1.422,0,0,1,38.4,9.955Zm51.2,41.242a1.422,1.422,0,0,0-1.422,1.422V68.262H85.328V38.4a7.11,7.11,0,0,0-5.687-6.965V27.02a1.405,1.405,0,0,0-.1-.492A11.289,11.289,0,0,0,83.6,12.415,7.085,7.085,0,1,0,72.062,5.336a1.4,1.4,0,0,0-.026.475,11.306,11.306,0,0,0-3.774,21.434v4.921a7.085,7.085,0,0,0-1.024.68L58.518,39.82H54.041a5.649,5.649,0,0,0-4.895,8.533H41.873a5.666,5.666,0,0,0-4.9-8.533H32.5l-8.721-6.974a7.085,7.085,0,0,0-1.024-.68V27.02a1.348,1.348,0,0,0-.028-.145A11.206,11.206,0,0,0,27.345,12.27c-.017-.028-.028-.063-.048-.091a11.34,11.34,0,1,0-20.5,9.7l.032.025a11.377,11.377,0,0,0,4.579,4.975,1.348,1.348,0,0,0-.028.145v4.411A7.111,7.111,0,0,0,5.689,38.4V68.262H2.844V46.93A1.422,1.422,0,0,0,0,46.93V89.594a1.422,1.422,0,1,0,2.844,0V71.107H19.91V89.594a1.422,1.422,0,1,0,2.844,0V71.107H25.6V85.328a5.689,5.689,0,1,0,11.377,0V63.484a4.266,4.266,0,0,0-3.43-4.184l-5.154-1.03a1.351,1.351,0,0,0,.051-.247V50.486l.569.427a1.422,1.422,0,0,0,.853.284H44.086V88.172H41.242a1.422,1.422,0,0,0,0,2.844h8.533a1.422,1.422,0,0,0,0-2.844H46.93V51.2H61.152A1.422,1.422,0,0,0,62,50.912l.569-.427v7.537a1.358,1.358,0,0,0,.051.247L57.474,59.3a4.266,4.266,0,0,0-3.433,4.184V85.328a5.689,5.689,0,1,0,11.377,0V71.107h2.844V89.594a1.422,1.422,0,0,0,2.844,0V71.107H88.172V89.594a1.422,1.422,0,0,0,2.844,0V46.93A1.422,1.422,0,0,0,89.594,45.508ZM8.533,17.066a8.507,8.507,0,0,1,15.359-5.071L12.515,14.25a1.422,1.422,0,0,0-1.138,1.394V19.91H9.056a8.433,8.433,0,0,1-.523-2.844Zm2.219,5.689H12.8a1.422,1.422,0,0,0,1.422-1.422v-4.52L25.2,14.634a8.413,8.413,0,0,1,.4,2.432,8.5,8.5,0,0,1-14.847,5.689Zm9.159,5.285v3.3c-.191-.014-.381-.048-.569-.048h-5.12V28.039a11.246,11.246,0,0,0,2.844.4A11.246,11.246,0,0,0,19.91,28.039ZM32.993,62.09a1.422,1.422,0,0,1,1.138,1.394V85.328a2.844,2.844,0,1,1-5.689,0V69.684a1.422,1.422,0,0,0-1.422-1.422H8.533V57.2Zm1.138-13.738H30.34l-11-8.248a1.422,1.422,0,0,0-1.707,2.275L25.6,48.352h0V57.71L8.533,54.3V38.4A4.266,4.266,0,0,1,12.8,34.131h6.542a4.266,4.266,0,0,1,2.665.936l9.1,7.29a1.422,1.422,0,0,0,.89.31h2.133Zm2.844,0V42.664h0a2.844,2.844,0,0,1,0,5.689Zm17.066,0a2.844,2.844,0,1,1,0-5.689h0ZM78.928,2.844a4.241,4.241,0,0,1,3.129,7.125A11.306,11.306,0,0,0,74.9,5.856a4.229,4.229,0,0,1,4.033-3.012ZM73.24,8.533A8.485,8.485,0,0,1,79.7,22.575a22.5,22.5,0,0,1-4.283-8.28,1.422,1.422,0,0,0-.956-1.138A17.484,17.484,0,0,1,69.19,9.6a8.425,8.425,0,0,1,4.05-1.067Zm-8.533,8.533a8.467,8.467,0,0,1,2.213-5.689,23.257,23.257,0,0,0,5.851,4.167A27.8,27.8,0,0,0,77.515,24.4a8.433,8.433,0,0,1-4.275,1.2,8.533,8.533,0,0,1-8.533-8.533ZM76.8,27.817v3.47h-5.12c-.193,0-.381.034-.569.048V28.226a11.354,11.354,0,0,0,2.133.216,11.226,11.226,0,0,0,3.555-.626Zm5.689,40.445H64a1.422,1.422,0,0,0-1.422,1.422V85.328a2.844,2.844,0,1,1-5.689,0V63.484a1.422,1.422,0,0,1,1.138-1.394L82.484,57.2Zm0-13.965L65.418,57.71V48.352h0l7.964-5.973A1.422,1.422,0,0,0,71.675,40.1l-11,8.248H56.885V42.664h2.13a1.422,1.422,0,0,0,.89-.31l9.1-7.287a4.266,4.266,0,0,1,2.668-.936h6.542A4.266,4.266,0,0,1,82.484,38.4Z" fill="#1d1d1b"/>
</svg>
