<svg xmlns="http://www.w3.org/2000/svg" width="65.369" height="65.369" viewBox="0 0 65.369 65.369">
  <g id="Group_554" data-name="Group 554" transform="translate(1 1)">
    <path id="Path_1174" data-name="Path 1174" d="M61.462,33.547a.99.99,0,0,0-1.771,0l-1.98,3.961a.99.99,0,1,0,1.771.886l.1-.209V78.052H52.655a.99.99,0,1,0,0,1.98h7.426a1.487,1.487,0,0,0,1.485-1.485V38.185l.1.209a.99.99,0,1,0,1.771-.886Zm-32.57,44.5H21.96V38.185l.1.209a.99.99,0,1,0,1.771-.886l-1.98-3.961a.99.99,0,0,0-1.771,0L18.1,37.508a.99.99,0,1,0,1.771.886l.1-.209V78.547a1.487,1.487,0,0,0,1.485,1.485h7.426a.99.99,0,1,0,0-1.98Z" transform="translate(-9.088 -16.663)" fill="#1d1d1b" stroke="#1d1d1b" stroke-width="2"/>
    <path id="Path_1175" data-name="Path 1175" d="M23.016,16.832H27.4a9.94,9.94,0,0,1-2.772-1.98h-1.61a5.185,5.185,0,0,0-5.193,5.164V42.469a3.088,3.088,0,0,0,3.092,3.078h2.849V62.379a.99.99,0,0,0,1.98,0V34.655a.99.99,0,0,0-1.98,0v8.911H20.914a1.106,1.106,0,0,1-1.111-1.1V20.017A3.2,3.2,0,0,1,23.016,16.832ZM45.547,42.469V20.017a5.185,5.185,0,0,0-5.193-5.164h-1.61a9.94,9.94,0,0,1-2.772,1.98h4.381a3.2,3.2,0,0,1,3.213,3.184V42.469a1.106,1.106,0,0,1-1.111,1.1H39.606V34.655a.99.99,0,0,0-1.98,0V62.379a.99.99,0,0,0,1.98,0V45.547h2.849a3.088,3.088,0,0,0,3.092-3.078ZM31.685,15.842a7.921,7.921,0,1,0-7.921-7.921A7.921,7.921,0,0,0,31.685,15.842Zm0-13.862a5.941,5.941,0,1,1-5.941,5.941A5.941,5.941,0,0,1,31.685,1.98Zm0,41.586a.99.99,0,0,0-.99.99V62.379a.99.99,0,0,0,1.98,0V44.557a.99.99,0,0,0-.99-.99ZM62.379,61.389h-2.97V45.781l.1.209a.99.99,0,1,0,1.771-.886L59.3,41.143a.99.99,0,0,0-1.771,0L55.553,45.1a.99.99,0,0,0,1.771.886l.1-.209v16.6a.99.99,0,0,0,.99.99h3.961a.99.99,0,0,0,0-1.98ZM5.836,41.143a.99.99,0,0,0-1.771,0L2.085,45.1a.99.99,0,1,0,1.771.886l.1-.209V61.389H.99a.99.99,0,0,0,0,1.98H4.951a.99.99,0,0,0,.99-.99v-16.6l.1.209A.99.99,0,0,0,7.817,45.1Z" fill="#1d1d1b" stroke="#1d1d1b" stroke-width="2"/>
  </g>
</svg>
