<svg xmlns="http://www.w3.org/2000/svg" width="58" height="48.773" viewBox="0 0 58 48.773">
  <path id="Fill-1" d="M58.773,49.909a3.955,3.955,0,1,1,3.955-3.955A3.959,3.959,0,0,1,58.773,49.909ZM20.6,34.091l2.514-12.574c.29-1.037,1.1-3.244,2.706-3.244H52.182c1.611,0,2.416,2.207,2.706,3.244L57.4,34.091ZM19.227,49.909a3.955,3.955,0,1,1,3.955-3.955A3.959,3.959,0,0,1,19.227,49.909ZM62.7,34.544c.008-.152.022-.3.022-.453l-2.688-13.7-.04-.17C58.779,15.7,55.857,13,52.182,13H25.818c-3.675,0-6.6,2.7-7.818,7.222L15.324,33.574l-.051.517c0,.153.014.3.022.453A7.916,7.916,0,0,0,10,42v6.591a7.915,7.915,0,0,0,5.273,7.448v3.1a2.636,2.636,0,0,0,2.636,2.636h2.636a2.636,2.636,0,0,0,2.636-2.636V56.5H54.818v2.636a2.636,2.636,0,0,0,2.636,2.636h2.636a2.636,2.636,0,0,0,2.636-2.636v-3.1A7.915,7.915,0,0,0,68,48.591V42A7.916,7.916,0,0,0,62.7,34.544Z" transform="translate(-10 -13)" fill="#fff" fill-rule="evenodd"/>
</svg>
